<svg height="64" preserveAspectRatio="none" viewBox="0 0 64 64" width="64" xmlns="http://www.w3.org/2000/svg" xmlns:xlink="http://www.w3.org/1999/xlink"><linearGradient id="a"><stop offset="0" stop-color="#ba2e20"/><stop offset="1" stop-color="#c10d23"/></linearGradient><linearGradient id="b" gradientTransform="matrix(-.9706789 .2403798 .16759 .6767455 52.409988 6.189815)" gradientUnits="userSpaceOnUse" x1="11.753961" x2="23.465471" xlink:href="#a" y1="52.745846" y2="56.87368"/><linearGradient id="c" gradientTransform="matrix(.9706789 .2403798 -.16759 .6767455 11.590013 6.189815)" gradientUnits="userSpaceOnUse" x1="11.753961" x2="23.465471" xlink:href="#a" y1="52.745846" y2="56.87368"/><linearGradient id="d" gradientTransform="matrix(.8097556 .5867673 -.4090872 .5645517 25.225767 7.038725)" gradientUnits="userSpaceOnUse" x1="10.704989" x2="22.416502" xlink:href="#a" y1="53.226051" y2="57.35389"/><linearGradient id="e" gradientTransform="matrix(-.8097556 .5867673 .4090872 .5645517 38.774235 7.038725)" gradientUnits="userSpaceOnUse" x1="10.704728" x2="22.416241" xlink:href="#a" y1="53.226326" y2="57.35416"/><linearGradient id="f" gradientTransform="matrix(.7231758 -1.0975451 .8350303 .550204 -32.136822 38.19083)" gradientUnits="userSpaceOnUse" x1="15.832081" x2="15.832081" xlink:href="#a" y1="38.83614" y2="53.720871"/><linearGradient id="g" gradientTransform="matrix(.8097556 .5867673 -.537695 .742034 26.76906 4.908937)" gradientUnits="userSpaceOnUse" x1="4.664503" x2="13.726537" xlink:href="#a" y1="49.092403" y2="52.286408"/><linearGradient id="h" gradientTransform="matrix(.9704412 .2413377 -.2413377 .9704412 11.300961 -2.656483)" gradientUnits="userSpaceOnUse" x1="8.929445" x2="12.42838" xlink:href="#a" y1="42.599022" y2="43.832256"/><linearGradient id="i" gradientTransform="matrix(-.7231758 -1.0975451 -.8350303 .550204 96.136818 38.19083)" gradientUnits="userSpaceOnUse" x1="15.832081" x2="15.832081" xlink:href="#a" y1="38.83614" y2="53.720871"/><linearGradient id="j" gradientTransform="matrix(-.8097556 .5867673 .537695 .742034 37.230938 4.908937)" gradientUnits="userSpaceOnUse" x1="4.664503" x2="13.726537" xlink:href="#a" y1="49.092403" y2="52.286408"/><linearGradient id="k" gradientTransform="matrix(-.9704412 .2413377 .2413377 .9704412 52.69904 -2.656483)" gradientUnits="userSpaceOnUse" x1="8.929445" x2="12.42838" xlink:href="#a" y1="42.599022" y2="43.832256"/><linearGradient id="l"><stop offset="0" stop-color="#e53828"/><stop offset="1" stop-color="#c10d23"/></linearGradient><radialGradient id="m" cx="32" cy="38.00082" gradientTransform="matrix(.9037037 0 0 .6392948 3.081482 13.707094)" gradientUnits="userSpaceOnUse" r="20.193922" xlink:href="#l"/><linearGradient id="n" gradientTransform="matrix(.7231758 -1.0975451 .8350303 .550204 -32.136822 38.19083)" gradientUnits="userSpaceOnUse" x1="17.22694" x2="17.22694" xlink:href="#a" y1="41.618603" y2="56.50333"/><linearGradient id="o" gradientTransform="matrix(.8778421 .4789502 -.3883086 .7117096 20.122986 5.96783)" gradientUnits="userSpaceOnUse" x1="7.744855" x2="16.65802" xlink:href="#a" y1="49.4137" y2="52.555233"/><linearGradient id="p" gradientTransform="matrix(.9704412 .2413377 -.2413377 .9704412 11.300961 -2.656483)" gradientUnits="userSpaceOnUse" x1="12.163117" x2="15.662052" xlink:href="#a" y1="41.794842" y2="43.028076"/><linearGradient id="q" gradientTransform="matrix(-.7231758 -1.0975451 -.8350303 .550204 96.136818 38.19083)" gradientUnits="userSpaceOnUse" x1="17.22694" x2="17.22694" xlink:href="#a" y1="41.618603" y2="56.50333"/><linearGradient id="r" gradientTransform="matrix(-.8778421 .4789502 .3883086 .7117096 43.877014 5.96783)" gradientUnits="userSpaceOnUse" x1="7.744855" x2="16.65802" xlink:href="#a" y1="49.4137" y2="52.555233"/><linearGradient id="s" gradientTransform="matrix(-.9704412 .2413377 .2413377 .9704412 52.69904 -2.656483)" gradientUnits="userSpaceOnUse" x1="12.163117" x2="15.662052" xlink:href="#a" y1="41.794842" y2="43.028076"/><linearGradient id="t" gradientUnits="userSpaceOnUse" x1="32" x2="32" y1="25.850821" y2="43.400822"><stop offset="0" stop-color="#fffff1" stop-opacity=".3"/><stop offset="1" stop-color="#fffff1" stop-opacity="0"/></linearGradient><radialGradient id="u" cx="11.630802" cy="34.321137" gradientTransform="matrix(.9927552 -.1201544 .1467115 1.2121793 -2.60947 -7.918951)" gradientUnits="userSpaceOnUse" r="3.746269" xlink:href="#l"/><radialGradient id="v" cx="21.835606" cy="12.906037" gradientTransform="matrix(.0187565 .812077 .228914 -.0273911 12.554814 4.366504)" gradientUnits="userSpaceOnUse" r="15.829166" xlink:href="#l"/><linearGradient id="w"><stop offset="0" stop-color="#fffff1" stop-opacity=".4"/><stop offset=".6" stop-color="#fffff1" stop-opacity="0"/></linearGradient><linearGradient id="x" gradientTransform="matrix(.970149 -.2425097 .2425097 .970149 -4.804221 4.662932)" gradientUnits="userSpaceOnUse" x1="15.045722" x2="15.045722" xlink:href="#w" y1="13.593967" y2="30.334496"/><radialGradient id="y" cx="10.229451" cy="9.354992" gradientTransform="matrix(.3188291 .8428118 -.602149 .2127418 11.13529 9.990945)" gradientUnits="userSpaceOnUse" r="12.055241" xlink:href="#l"/><linearGradient id="z" gradientTransform="matrix(.970149 -.2425097 .2425097 .970149 -4.804221 4.662932)" gradientUnits="userSpaceOnUse" x1="9.081818" x2="9.081818" xlink:href="#w" y1="9.616741" y2="32.022984"/><radialGradient id="A" cx="8.872651" cy="31.984076" gradientTransform="matrix(-.8082306 -.5630409 -.3871329 .8094154 70.255386 11.589187)" gradientUnits="userSpaceOnUse" r="4.668923" xlink:href="#l"/><radialGradient id="B" cx="-26.649832" cy="1.982472" gradientTransform="matrix(.0088992 .8122449 -.2297138 -.0195825 49.432381 42.123501)" gradientUnits="userSpaceOnUse" r="18.176603" xlink:href="#l"/><linearGradient id="C" gradientTransform="matrix(-.9778422 -.2093432 -.2093432 .9778422 99.632172 10.905336)" gradientUnits="userSpaceOnUse" x1="46.717114" x2="46.717114" xlink:href="#w" y1="10.785035" y2="30.008154"/><radialGradient id="D" cx="41.09906" cy="10.779616" gradientTransform="matrix(-.2899532 .853177 .6090422 .19212 62.258156 -18.288179)" gradientUnits="userSpaceOnUse" r="13.843011" xlink:href="#l"/><linearGradient id="E" gradientTransform="matrix(-.9778422 -.2093432 -.2093432 .9778422 99.632172 10.905336)" gradientUnits="userSpaceOnUse" x1="39.868771" x2="39.868771" xlink:href="#w" y1="6.217993" y2="31.947043"/><linearGradient id="F"><stop offset="0" stop-color="#595757"/><stop offset="1" stop-color="#231815"/></linearGradient><radialGradient id="G" cx="24.065001" cy="24.63582" gradientTransform="matrix(.4285714 0 0 1 15.071428 0)" gradientUnits="userSpaceOnUse" r="6.615" xlink:href="#F"/><linearGradient id="H"><stop offset="0" stop-color="#fff"/><stop offset="1" stop-color="#fff" stop-opacity="0"/></linearGradient><linearGradient id="I" gradientUnits="userSpaceOnUse" x1="24.629" x2="24.629" xlink:href="#H" y1="19.91082" y2="23.690821"/><linearGradient id="J"><stop offset="0" stop-color="#fff" stop-opacity=".6"/><stop offset="1" stop-color="#fff" stop-opacity="0"/></linearGradient><linearGradient id="K" gradientUnits="userSpaceOnUse" x1="26.141001" x2="26.141001" xlink:href="#J" y1="26.714819" y2="29.10882"/><radialGradient id="L" cx="54.935001" cy="24.63582" gradientTransform="matrix(.4285714 0 0 1 15.071428 0)" gradientUnits="userSpaceOnUse" r="6.615" xlink:href="#F"/><linearGradient id="M" gradientUnits="userSpaceOnUse" x1="37.859001" x2="37.859001" xlink:href="#H" y1="19.91082" y2="23.690821"/><linearGradient id="N" gradientUnits="userSpaceOnUse" x1="39.370998" x2="39.370998" xlink:href="#J" y1="26.714819" y2="29.10882"/><linearGradient id="O"><stop offset="0" stop-color="#fff" stop-opacity=".2"/><stop offset="1" stop-color="#fff" stop-opacity="0"/></linearGradient><linearGradient id="P" gradientUnits="userSpaceOnUse" x1="50.224999" x2="50.224999" xlink:href="#O" y1="40.700821" y2="42.554821"/><linearGradient id="Q" gradientUnits="userSpaceOnUse" x1="13.775" x2="13.775" xlink:href="#O" y1="40.700821" y2="42.554821"/><path d="m45.1159744 39.3911133s.9171562-.483551 1.1345901 6.0877571-2.4615517 10.2124023-2.4615517 10.2124023 1.5081558-10.82407-.4711075-14.2378349z" fill="url(#b)"/><path d="m43.2572594 57 .1715317-1.2332611c.0148201-.1054993 1.4572678-10.6667671-.4253311-13.9150581l-.2034607-.3507729 2.3006363-2.5884056c.0590706-.0307198.1800461-.0750847.3230515-.0172539.6611633.2673836 1.0623436 2.4171333 1.1937904 6.3907051.2236252 6.7617264-2.5071907 10.5550194-2.6232414 10.7128677zm.5641975-15.5786133c1.3502312 2.9533577.8449249 9.5670624.5177803 12.6156845.7211914-1.5388527 1.6768951-4.3651352 1.5443687-8.365303-.146801-4.434845-.6109123-5.4701004-.7925072-5.7062263z" fill="#e53828"/><path d="m18.8840256 39.3911133s-.9171543-.483551-1.1345882 6.0877571 2.4615517 10.2124023 2.4615517 10.2124023-1.5081577-10.82407.4711075-14.2378349z" fill="url(#c)"/><path d="m20.0057659 55.9988213c-.1160507-.1578484-2.8468685-3.9511414-2.6232452-10.7128677.1314487-3.9735718.5326271-6.1233215 1.1937923-6.3907051.1430035-.0578308.2639828-.0134659.3230515.0172539l2.3006363 2.5884056-.2034588.3507729c-1.8825989 3.248291-.4401512 13.8095589-.4253349 13.9150581l.1715335 1.233261zm-1.0968666-16.0332795c-.1815948.2361259-.6457043 1.2713814-.7925053 5.7062263-.1325264 4.0001678.8231773 6.8264503 1.5443668 8.365303-.3271446-3.0486221-.832449-9.6623268.5177822-12.6156845z" fill="#e53828"/><path d="m18.4942684 40.2085381s-.6689663-.7921371-3.3342161 5.218338-1.5467653 10.390377-1.5467653 10.390377 2.6599407-10.599987 5.7747059-13.0226974z" fill="url(#d)"/><path d="m13.6159143 57.2298813-.3075409-1.2044525c-.0487289-.1898422-1.1582012-4.7302742 1.584177-10.914959 1.6112833-3.6344528 2.7894926-5.4769936 3.5023565-5.4769936.1542549 0 .2497768.086483.2933426.1371078l.0939083.171917 1.0678425 3.0902328-.3201275.2489052c-2.9650459 2.3066025-5.584795 12.6372681-5.6109352 12.7406273zm4.6860533-16.4794922c-.2572002.1518745-1.0755882.9376183-2.8743668 4.9928932-1.6061211 3.6228485-1.7845783 6.6086693-1.6987381 8.315155.8429146-2.9562912 2.8498402-9.2559395 5.2043228-11.4823837z" fill="#e53828"/><path d="m45.5060539 40.2085381s.6689682-.7921371 3.3342171 5.218338 1.5467644 10.390377 1.5467644 10.390377-2.6599388-10.599987-5.7747078-13.0226974z" fill="url(#e)"/><path d="m50.3847313 57.2298813-.3033485-1.2076149c-.0258141-.1033592-2.6481438-10.4350777-5.6112556-12.7406273l-.3201256-.2489052 1.1623955-3.2621498c.0432434-.0506248.1387634-.1371078.2930183-.1371078.7131882 0 1.8910713 1.8425407 3.5026817 5.4769936 2.7423744 6.1846848 1.6329041 10.7251167 1.5844994 10.914959zm-5.3175926-14.6538277c2.3590012 2.23172 4.370121 8.5524597 5.2098083 11.5013695.0916481-1.6969948-.0819702-4.6754303-1.7045479-8.3341408-1.7987785-4.0563278-2.6171684-4.8420715-2.8740425-4.9928932z" fill="#e53828"/><path d="m12.5755825 40.9174156s.6419449-1.1112633 2.6185713.3742867 9.883132 7.4277534 8.5992422 9.6502838c-1.2838898 2.2225266-9.1903944-3.7196732-11.1670208-5.2052269-1.9766264-1.4855499-1.3346815-2.5968132-1.3346815-2.5968132z" fill="url(#f)"/><path d="m13.4166355 41.5181923h-.0000086c.0972195 0 .4693995.0413094 1.1767702.5729408 8.7365055 6.5660133 8.3466511 8.318573 8.3683796 8.318573l.0001011-.0000153c-.004076.0018578-.056181.0243034-.1921806.0243034-.8324203 0-3.1790504-.7141037-9.5425205-5.4966316-.9204988-.691803-1.0586653-1.1951904-1.0340424-1.3587112l1.1892662-2.0587387c.0088778-.0009918.0201798-.0017204.034235-.0017204m-.0000343-.9999962c-.6103783.0000076-.8410149.3992157-.8410149.3992157l-1.2838898 2.2225304s-.6419497 1.1112709 1.3346806 2.5968208c1.6711512 1.25597 7.5807037 5.6972275 10.1433182 5.6972275.4684181 0 .8252869-.1485367 1.0237007-.4920082 1.2838898-2.2225304-6.6226196-8.1647301-8.5992393-9.65028-.7919064-.5951615-1.3695584-.7735138-1.7775555-.7735062z" fill="#e53828"/><path d="m10.5256338 40.2085381s-.9583998-.7921371-4.776783 5.218338-2.215982 10.390377-2.215982 10.390377 3.8107781-10.599987 8.2731647-13.0226974z" fill="url(#g)"/><path d="m3.5366211 57.2841797-.4736328-1.2949219c-.0688477-.1884766-1.6416016-4.6826172 2.2641602-10.8310547 2.3115234-3.6386719 4.0126953-5.4833984 5.0556641-5.4833984.2441406 0 .394043.0927734.4614258.1484375l.1293945.1640625 1.4941406 3.0175781-.4233398.2294922c-4.2456056 2.3046875-8.0039064 12.6484375-8.0410157 12.7519531zm6.6879883-16.5556641c-.394043.1904297-1.5678711 1.0537109-4.0537109 4.9667969-2.2651367 3.5654297-2.5581055 6.5283203-2.4516602 8.2685547 1.2412109-3.0146484 4.0942383-9.1865234 7.434082-11.3613281z" fill="#e53828"/><path d="m12.9575272 42.3476868c-.2366304 1.0853157-1.1998138 1.7463379-2.15133 1.4764328-.9515152-.2699051-1.5310431-1.3685341-1.2944126-2.4538498.2366314-1.0853195 1.1998148-1.7463417 2.15133-1.4764366s1.531044 1.368534 1.2944126 2.4538536z" fill="url(#h)"/><path d="m11.2353516 44.3847656c-.1899414 0-.3798828-.0273438-.5654297-.0791016-1.1992188-.3398438-1.9379883-1.7041016-1.6469727-3.0419922.293457-1.3417969 1.5634766-2.1884766 2.7763672-1.8515625 1.199707.3417969 1.9384766 1.7060547 1.6464844 3.0419922-.2480469 1.1367188-1.1567383 1.9306641-2.2104492 1.9306641zm-.0014649-4.0517578c-.5795898 0-1.0869141.4707031-1.2338867 1.1435547-.1806641.8310547.2421875 1.6679688.9423828 1.8662109.6694336.1875 1.3549805-.3154297 1.5268555-1.1015625.1811523-.8300781-.2416992-1.6669922-.9428711-1.8671875-.0961914-.0263671-.1948242-.0410156-.2924805-.0410156z" fill="#e53828"/><path d="m51.4244156 40.9174156s-.6419411-1.1112633-2.6185684.3742867-9.8831329 7.4277534-8.5992432 9.6502838c1.2838898 2.2225266 9.1903954-3.7196732 11.1670189-5.2052269 1.9766273-1.4855499 1.3346825-2.5968132 1.3346825-2.5968132z" fill="url(#i)"/><path d="m50.5834007 41.5181923c.0140305 0 .025322.0007286.0341873.0017128l1.1892738 2.0587234c.0246429.1634865-.1134834.6668854-1.0340385 1.3587341-6.363472 4.7825279-8.7101021 5.4966316-9.5425224 5.4966316-.0849915 0-.1372185-.0087662-.1578674-.0087662-.0012207 0-.0023308.0000305-.0033302.0000954-.0256462-.1904373.0104332-2.0758972 8.3375282-8.3342209.7073402-.5316009 1.0795402-.5729102 1.1767692-.5729102m-.0000038-.9999962c-.4079971 0-.9856491.1783447-1.7775536.7735062-1.9766197 1.4855499-9.8831291 7.4277496-8.5992393 9.65028.19841.3434715.5552826.4920082 1.0237007.4920082 2.5626106 0 8.472168-4.4412575 10.1433182-5.6972275 1.9766312-1.4855499 1.3346786-2.5968208 1.3346786-2.5968208l-1.2838898-2.2225304c.0000001 0-.2306365-.3992157-.8410148-.3992157z" fill="#e53828"/><path d="m53.4743652 40.2085381s.9584007-.7921371 4.776783 5.218338 2.2159843 10.390377 2.2159843 10.390377-3.8107796-10.599987-8.2731667-13.0226974z" fill="url(#j)"/><path d="m60.4628906 57.2832031-.4667969-1.296875c-.0371094-.1035156-3.7978516-10.4492188-8.0400391-12.7519531l-.4238281-.2294922 1.6240234-3.1816406c.0673828-.0556641.2167969-.1484375.4609375-.1484375 1.0429688 0 2.7441406 1.8447266 5.0556641 5.4833984 3.90625 6.1484375 2.3320313 10.6425781 2.2636719 10.8310547zm-7.6152343-14.680664c3.3339844 2.1708984 6.1835938 8.3291016 7.4267578 11.3486328.1025391-1.7480469-.1943359-4.7128906-2.4453125-8.2558594-2.484375-3.9111328-3.6582031-4.7753906-4.0537109-4.9667969z" fill="#e53828"/><path d="m51.0424728 42.3476868c.2366295 1.0853157 1.1998138 1.7463379 2.151329 1.4764328s1.531044-1.3685341 1.2944145-2.4538498c-.2366333-1.0853195-1.1998138-1.7463417-2.1513329-1.4764366-.9515151.2699051-1.53104 1.368534-1.2944106 2.4538536z" fill="url(#k)"/><path d="m52.7646484 44.3847656s0 0-.0009766 0c-1.0527344 0-1.9619141-.7939453-2.2099609-1.9306641-.2910156-1.3359375.4472656-2.7001953 1.6464844-3.0410156 1.2128906-.3466797 2.484375.5078125 2.7763672 1.8505859.2910156 1.3378906-.4472656 2.7021484-1.6474609 3.0419922-.1845703.0517579-.375.0791016-.5644532.0791016zm.0019532-4.0517578c-.0986328 0-.1972656.0146484-.2929688.0419922-.7011719.1992188-1.1240234 1.0361328-.9433594 1.8662109.1728516.7861328.8564453 1.2910156 1.5263672 1.1015625.7011719-.1982421 1.1240235-1.0351562.9433594-1.8662109-.1464844-.6728516-.6542969-1.1435547-1.2333984-1.1435547z" fill="#e53828"/><path d="m32 24.4904919c-16.7878342 0-17.5509167 16.8879108-18.3139992 16.8879108 0 0 1.5261669 10.1327438 18.3139992 10.1327438s18.3139992-10.1327438 18.3139992-10.1327438c-.7630844 0-1.526165-16.8879108-18.3139992-16.8879108z" fill="url(#m)"/><path d="m32 25.49049c13.0622215 0 15.8185806 10.7199898 16.8562317 14.7556114.1375771.5350647.2511177.9766312.392086 1.3164063-.4493789 1.6599807-3.225399 8.9486427-17.2483177 8.9486427-14.1095772 0-16.8122578-7.2491188-17.2507133-8.9428902.1420755-.3405342.2561216-.7840652.394474-1.3221512 1.0376491-4.0356216 3.7939987-14.755619 16.8562393-14.755619m0-1c-16.7878304 0-17.5509205 16.8879128-18.3139992 16.8879128 0 0 1.5261698 10.1327477 18.3139992 10.1327477s18.3139992-10.1327477 18.3139992-10.1327477c-.7630883-.0000001-1.5261688-16.8879128-18.3139992-16.8879128z" fill="#e53828"/><path d="m15.9077492 40.9174156s.6419449-1.1112633 2.6185703.3742867 9.8831329 7.4277534 8.5992432 9.6502838c-1.2838898 2.2225266-9.1903934-3.7196732-11.1670208-5.2052269-1.9766254-1.4855499-1.3346815-2.5968132-1.3346815-2.5968132z" fill="url(#n)"/><path d="m16.7488022 41.5181923h-.0000076c.0972195 0 .4694004.0413094 1.1767693.5729408 8.7365055 6.5660133 8.346653 8.318573 8.3683815 8.318573l.0000992-.0000153c-.0040741.0018578-.056181.0243034-.1921806.0243034-.8324203 0-3.1790504-.7141037-9.5425186-5.4966316-.9204998-.691803-1.0586662-1.1951904-1.0340424-1.3587112l1.1892548-2.0587387c.0088805-.0009918.0201872-.0017204.0342444-.0017204m-.0000363-.9999962c-.6103821.0000076-.8410215.3992157-.8410215.3992157l-1.2838802 2.2225304s-.6419497 1.1112709 1.3346806 2.5968208c1.6711512 1.25597 7.5807047 5.6972275 10.1433172 5.6972275.46842 0 .8252888-.1485367 1.0237026-.4920082 1.2838898-2.2225304-6.6226196-8.1647301-8.5992393-9.65028-.7919083-.5951615-1.3695603-.7735138-1.7775594-.7735062z" fill="#e53828"/><path d="m13.2963257 40.8063431s-1.0389843-.6465836-3.7965164 5.1182632-.5597582 9.6262131-.5597582 9.6262131 2.0583305-9.9404373 5.9746532-12.4905052z" fill="url(#o)"/><path d="m9.1606445 56.9492188-.6552734-1.1513672c-.0952148-.1669922-2.2944336-4.15625.543457-10.0888672 1.7216797-3.5986328 3.1142578-5.4238281 4.1386719-5.4238281.1884766 0 .3144531.0605469.3730469.0966797l.1420898.1328125 1.9233398 2.6796875-.4384765.2851562c-3.6962891 2.40625-5.737793 12.0751953-5.7578125 12.1728516zm3.9018555-15.6113282c-.3271484.1884766-1.3085938 1.0332031-3.1113281 4.8027344-1.6079102 3.3613281-1.4550781 6.0556641-1.0996094 7.6318359.7480469-2.8603516 2.5366211-8.5625 5.3666992-10.8242188z" fill="#e53828"/><path d="m16.2896938 42.3476868c-.2366314 1.0853157-1.1998138 1.7463379-2.151329 1.4764328-.9515162-.2699051-1.531044-1.3685341-1.2944136-2.4538498.2366314-1.0853195 1.1998148-1.7463417 2.15133-1.4764366.9515162.2699051 1.531044 1.368534 1.2944126 2.4538536z" fill="url(#p)"/><path d="m14.5673828 44.3847656c-.1899414 0-.3798828-.0273438-.5654297-.0791016-1.1992188-.3398438-1.9379883-1.7041016-1.6469727-3.0419922.293457-1.3417969 1.565918-2.1884766 2.7763672-1.8515625 1.199707.3417969 1.9384766 1.7060547 1.6464844 3.0419922-.2470703 1.1367188-1.15625 1.9306641-2.2104492 1.9306641zm-.0014648-4.0517578c-.5795898 0-1.0869141.4707031-1.2338867 1.1435547-.1806641.8310547.2421875 1.6679688.9423828 1.8662109.6694336.1875 1.3549805-.3154297 1.5263672-1.1015625.1816406-.8300781-.2412109-1.6669922-.9423828-1.8671875-.0961915-.0263671-.1948243-.0410156-.2924805-.0410156z" fill="#e53828"/><path d="m48.0922508 40.9174156s-.6419449-1.1112633-2.6185722.3742867c-1.9766235 1.4855499-9.8831291 7.4277534-8.5992432 9.6502838 1.2838898 2.2225266 9.1903954-3.7196732 11.1670227-5.2052269 1.9766273-1.4855499 1.3346825-2.5968132 1.3346825-2.5968132z" fill="url(#q)"/><path d="m47.251236 41.5181923c.0140305 0 .025322.0007286.0341873.0017128l1.1892738 2.0587234c.0246429.1634865-.1134834.6668854-1.0340385 1.3587341-6.3635101 4.7825279-8.7101135 5.4966316-9.5425186 5.4966316-.0849991 0-.1372223-.0087662-.1578751-.0087662-.0012169 0-.002327.0000305-.0033264.0000954-.02565-.1904373.010437-2.0758972 8.3375282-8.3342209.7073402-.5316009 1.0795403-.5729102 1.1767693-.5729102m-.0000039-.9999962c-.4079971 0-.9856491.1783447-1.7775536.7735062-1.9766235 1.4855499-9.8831329 7.4277496-8.5992432 9.65028.1984177.3434715.5552826.4920082 1.0237045.4920082 2.5626106 0 8.4721565-4.4412575 10.1433182-5.6972275 1.9766312-1.4855499 1.3346786-2.5968208 1.3346786-2.5968208l-1.2838898-2.2225304c.0000002 0-.2306364-.3992157-.8410147-.3992157z" fill="#e53828"/><path d="m50.7036743 40.8063431s1.0389824-.6465836 3.7965164 5.1182632c2.7575302 5.7648506.5597572 9.6262131.5597572 9.6262131s-2.0583305-9.9404373-5.9746513-12.4905052z" fill="url(#r)"/><path d="m54.8388672 56.9492188-.2685547-1.296875c-.0205078-.0976563-2.0615234-9.7666016-5.7578125-12.1728516l-.4394531-.2851563 2.0673828-2.8125c.0576172-.0361328.1835938-.0966797.3720703-.0966797 1.0244141 0 2.4169922 1.8251953 4.1386719 5.4238281 2.8378906 5.9326172.6376953 9.921875.5429688 10.0888672zm-5.0576172-14.0009766c2.8310547 2.2617188 4.6191406 7.9638672 5.3671875 10.8242188.3554688-1.5761719.5087891-4.2705078-1.0996094-7.6318359-1.796875-3.7558594-2.7773438-4.6083984-3.1123047-4.8007813z" fill="#e53828"/><path d="m47.7103043 42.3476868c.2366333 1.0853157 1.1998138 1.7463379 2.1513329 1.4764328.9515152-.2699051 1.531044-1.3685341 1.2944107-2.4538498-.2366295-1.0853195-1.1998138-1.7463417-2.151329-1.4764366s-1.5310441 1.368534-1.2944146 2.4538536z" fill="url(#s)"/><path d="m49.4326172 44.3847656s0 0-.0009766 0c-1.0527344 0-1.9619141-.7939453-2.2099609-1.9306641-.2910156-1.3369141.4472656-2.7011719 1.6464844-3.0419922 1.2177734-.3408203 2.4833984.5107422 2.7763672 1.8515625.2910156 1.3378906-.4472656 2.7021484-1.6474609 3.0419922-.1845704.0517579-.3750001.0791016-.5644532.0791016zm.0009766-4.0517578c-.0976563 0-.1962891.0146484-.2919922.0419922-.7011719.1982422-1.1240234 1.0361328-.9433594 1.8662109.171875.7861328.8535156 1.2910156 1.5263672 1.1015625.7011719-.1982422 1.1240234-1.0351563.9433594-1.8662109-.147461-.6728516-.6542969-1.1435547-1.234375-1.1435547z" fill="#e53828"/><ellipse cx="32" cy="34.62582" fill="url(#t)" rx="10.8" ry="8.775"/><path d="m17.144228 31.9030361c.4049454 3.3457966-.6868687 6.2299747-2.4386339 6.4419956-1.7517662.2120171-3.5001268-2.3284111-3.9050722-5.6742096-.4049463-3.3457966.6868677-6.2299767 2.438633-6.4419956 1.7517661-.212017 3.5001258 2.3284111 3.9050731 5.6742096z" fill="url(#u)"/><path d="m14.5004883 38.8574219c-1.9692383 0-3.7734375-2.6337891-4.1967773-6.1264648-.2050781-1.6967773-.0488281-3.3422852.4394531-4.6333008.5297852-1.3989258 1.3950195-2.2392578 2.4360352-2.3652344 2.0517578-.2475586 4.0195313 2.4609375 4.4614258 6.1103516.2055664 1.6972656.0493164 3.3427734-.4394531 4.6337891-.529297 1.3984374-1.3945314 2.2382812-2.435547 2.3642577-.0883789.0107422-.1767578.0166016-.2651367.0166016zm-1.0556641-12.140625c-.0483398 0-.097168.0029297-.1455078.0087891-.644043.0776367-1.2348633.7070313-1.6206055 1.7260742-.4326172 1.1425781-.5683594 2.6196289-.3818359 4.1591797.4077148 3.3676758 2.0605469 5.3959961 3.3486328 5.237793.644043-.078125 1.2348633-.7070313 1.6206055-1.7265625.4326172-1.1425781.5678711-2.6191406.3813477-4.1591797-.3920899-3.2407227-1.9677735-5.2460938-3.2026368-5.2460938z" fill="#e53828"/><path d="m14.674633 10.7579012c-.8384809.0105696-.9250507 2.2122545-.9683361 3.313098-.0432844 1.1008425.7951965 1.0902729.7519121 2.1911144-.0432854 1.1008434-.8817663 1.111414-.9250507 2.2122555-.0432854 1.1008434.7951956 1.0902729.7519112 2.1911163-.0432844 1.1008415-.8817663 1.111412-.9250507 2.2122536-.0432854 1.1008434.7951965 1.0902729.7519112 2.1911163-.0432844 1.1008434-1.7635326 2.2228241-1.8501024 4.424511-.0865688 2.201685 1.5471087 3.2813873 2.3855896 3.2708168.8384819-.0105705 4.2789764-2.2545338 4.5819702-9.9604321s-3.7162725-12.0564194-4.5547544-12.0458498z" fill="url(#v)"/><path d="m14.8925152 12.0775976c1.0805759 1.0893698 3.5765266 4.6114531 3.3376446 10.6868639-.2638912 6.7112713-3.0077267 8.8095951-3.6245594 8.9966831-.1088285-.0180321-.4189339-.1202049-.7408304-.4574013-.2950296-.3090515-.6392498-.8671913-.6037102-1.7710915.0396805-1.0090885.5288305-1.7446384 1.0018806-2.4559689.4213095-.6335411.8192596-1.2319412.8482199-1.9685402.0352993-.8979702-.3273106-1.3951302-.5672503-1.7241096-.1632299-.2238007-.1926394-.2641296-.18466-.4670105.00881-.2240505.0639601-.2935715.2466898-.5238914.2564001-.3231773.6438799-.8115692.67836-1.6883583.0353003-.8979702-.3273096-1.3951302-.5672493-1.7241096-.1632309-.2238007-.1926403-.2641296-.18466-.4670105.00881-.2240601.0639591-.2935696.2466898-.5238895.2564001-.3231812.6438799-.8115807.67836-1.6883602.0353003-.8979702-.3273106-1.3951302-.5672503-1.7241106-.1632299-.2237997-.1926403-.2641296-.18466-.4670095.0362627-.9224044.0988971-1.6021434.1869852-2.0326854m-.2148228-1.3197145c-.0010328 0-.002039.0000067-.0030622.0000191-.83848.0105705-.9250498 2.2122507-.9683304 3.3131008-.0432901 1.1008396.7951899 1.0902691.7519102 2.1911087-.0432901 1.1008415-.8817701 1.111412-.9250498 2.2122612-.0432901 1.1008396.7951899 1.0902691.7519102 2.1911087-.0432901 1.1008511-.8817701 1.111412-.9250507 2.2122612-.0432892 1.1008396.7951908 1.090271.7519102 2.1911087-.0432796 1.1008511-1.7635298 2.2228317-1.8500996 4.424511-.0861473 2.1909389 1.5312872 3.2708969 2.3733416 3.2708969.0041313 0 .0081539-.0000229.012248-.0000763.83848-.0105705 4.2789698-2.25453 4.5819693-9.9604301.3026199-7.6964932-3.7064953-12.0458699-4.5516968-12.0458699z" fill="#e53828"/><path d="m15.3482656 13.6376295c-.0084457.1553984-.0161238.3203888-.0234184.4956102l.0005112-.0001278c.0040932-.0010223.036067.0377321.0658665.07866.2548943.3499403.7295122 1.0004511.6861258 2.1141996-.0427475 1.0793438-.5248184 1.6863422-.8129854 2.0491867-.0416965.0528221-.0886374.1020622-.1240673.164732.0126619-.0124073.0451479.0305691.0775051.0752068.2554064.3498116.7295132 1.0004501.6861248 2.1141987-.0428753 1.0788326-.5244331 1.6857033-.8119612 2.0489311-.0422087.0529499-.0891485.10219-.1241951.1642189.0008955-.0007668.0014067-.0008945.00243-.0011501.0122786-.0030689.0443802.0361977.0746918.0769978.2548943.3499393.7300243 1.0003223.6861248 2.1141987-.035964.9107723-.5017929 1.6110115-.9517622 2.2877159-.4452372.6695423-.8660431 1.3019962-.8986807 2.1369228-.0380116.9699898.4540071 1.383503.6994429 1.5281639.8005371-.4898338 2.8090048-2.6992474 3.0306768-8.3447304.175085-4.4532051-1.1861974-7.4852314-2.2624294-9.1029348z" fill="url(#x)"/><path d="m6.9579234 9.7131081c1.2651601-.4657583 2.1629195 1.7965155 2.6117997 2.9276533.4488792 1.1311369-.8162813 1.5968952-.3674011 2.7280331.4488792 1.1311369 1.7140398.6653776 2.162919 1.7965155.4488802 1.1311378-.8162804 1.5968952-.3674011 2.7280331.4488802 1.1311378 1.7140398.6653786 2.16292 1.7965164.4488792 1.1311359-.8162804 1.5968952-.3674011 2.7280331s3.4280806 1.3307571 4.325839 3.5930309-1.1836815 4.3249302-2.448842 4.7906895-7.2235608.0665167-10.3657184-7.8514425 1.3881259-14.7713032 2.653286-15.2370624z" fill="url(#y)"/><path d="m7.2980886 10.6561766c.1904731.0749693.603816.4929132 1.3421397 2.3534431.0483303.1217899.0512409.1568298-.1446295.5400095-.2297201.44942-.6142201 1.2016001-.2227697 2.1880207.3853598.9710598 1.1458397 1.2662697 1.6490698 1.4616184.4142504.1608105.4607401.2010517.5138502.3349018.0483294.1217899.05124.1568298-.1446304.5400105-.2297201.449419-.6142197 1.2015991-.2227697 2.1880188.3853598.9710598 1.1458397 1.2662697 1.6490698 1.4616203.4142504.1608086.4607401.2010498.5138502.3348999.0483303.1217899.05124.1568298-.1446304.5400085-.2297201.4494209-.6142197 1.201601-.2227697 2.1880226.3271103.8242798 1.1476002 1.232769 2.0162601 1.6652489.9463196.4711399 1.9248695.9583206 2.3095798 1.9277802.2154808.5429802.1933994 1.112299-.0656395 1.6921406-.4163208.9319286-1.3027306 1.6084995-1.7992105 1.7912693-.0642796.0236702-.27841.0684299-.6286697.0684299-.5675697 0-5.6270199-.2062607-8.46206-7.3503094-2.889042-7.2801208 1.2105106-13.4121303 2.0639595-13.9251336m-.0030504-1.0053559c-.1092629.0000038-.2216768.0197897-.3371196.0622893-1.2651596.4657593-5.7954402 7.3190994-2.6532798 15.2370586 2.6245399 6.6136055 7.2134724 7.9814568 9.3915491 7.9814568.4295673 0 .7657566-.0532913.9741707-.1300163 1.2651596-.4657593 3.3465996-2.52841 2.4488392-4.7906895-.8977585-2.26227-3.8769588-2.4618893-4.325839-3.5930309-.4488802-1.1311302.8162804-1.5968895.3674002-2.7280293s-1.7140398-.6653805-2.16292-1.7965202c-.4488802-1.1311302.8162794-1.5968895.3674002-2.7280293-.4488802-1.1311398-1.7140398-.6653805-2.16292-1.7965202-.4488802-1.1311302.8162794-1.5968904.3674002-2.7280302-.4079209-1.0279265-1.1865111-2.989975-2.2746812-2.9899388z" fill="#e53828"/><path d="m13.847681 33.0088005-.388505-1.5661392c.2566032-.1098042.7240601-.6348763.8991032-1.3233051.137394-.5404091.0372601-.9350147-.0500927-1.1844196-.2462368-.7043381-.7676573-1.1387672-1.5349188-1.7204723-.693531-.5256672-1.4106064-1.0693684-1.7802496-2.1255302-.4404402-1.2602425-.1704607-2.1512375-.0247803-2.6301193-.0101261-.0061665-.0202522-.0123329-.0303783-.0184975-.3886967-.2409382-1.1122313-.6895294-1.5442972-1.9252281-.4406633-1.2596436-.1703329-2.1507263-.0247793-2.6301212-.0099983-.0056534-.0201244-.0118198-.0302515-.0179844-.3886957-.2409382-1.1122303-.6895294-1.5446477-1.9251413-.4406962-1.2612658-.1700139-2.1524372-.0245562-2.6307192.0136905-.0452776.0291696-.0893707.0423808-.1350718-.2561755-.7246838-.4689932-1.2579966-.6368227-1.5949125-.7748671 1.4216194-3.5841527 6.1724606-1.4581833 12.2508373 2.3919277 6.8392086 7.1673822 7.7544422 7.7396641 7.6113873z" fill="url(#z)"/><path d="m47.4838715 30.2399597c-1.3317108 2.7843399-.9704056 6.0452499.807003 7.2834549 1.7774086 1.2382011 4.2978477-.0151901 5.6295586-2.7995262 1.3317146-2.7843399.9704094-6.0452518-.8069992-7.2834549s-4.2978478.0151882-5.6295624 2.7995262z" fill="url(#A)"/><path d="m49.8046875 38.5009766s0 0-.0009766 0c-.6533203 0-1.2587891-.1914063-1.7988281-.5673828-1.9990234-1.3935547-2.4267578-4.8671875-.9726563-7.909668 1.0351563-2.1630859 2.828125-3.5610352 4.5673828-3.5610352.6542969 0 1.2597656.190918 1.7998047.5673828 1.9990234 1.3930664 2.4267578 4.8671875.9726563 7.9091797-1.0351562 2.163086-2.828125 3.5615235-4.5673828 3.5615235zm1.7949219-11.038086c-1.3564453 0-2.7958984 1.1748047-3.6650391 2.9926758-1.2275391 2.5688477-.9394531 5.5551758.6425781 6.6577148.3691406.2568359.7822266.3876953 1.2265625.3876953h.0009766c1.3564453 0 2.7949219-1.1748047 3.6650391-2.9931641 1.2285156-2.5683594.9394531-5.5546875-.6425781-6.6572266-.3691407-.2573241-.7822266-.3876952-1.2275391-.3876952z" fill="#e53828"/><path d="m49.7381058 7.7804861c.9626808-.0206466 1.1480942 2.5026951 1.2408028 3.7643661s-.8699722 1.2823172-.7772675 2.5439882c.0927086 1.2616711 1.0553894 1.241025 1.148098 2.5026951s-.8699722 1.2823181-.7772636 2.5439892c.0927048 1.2616711 1.0553894 1.241024 1.1480942 2.5026951.0927086 1.2616711-.8699722 1.2823181-.7772636 2.5439892.0927048 1.2616692 2.1107788 2.482048 2.2961922 5.0053902.1854172 2.5233421-1.6472397 3.8263054-2.6099205 3.8469505-.9626846.020649-4.9988251-2.4201088-5.6477776-11.2518044-.6489564-8.8316964 3.7936209-13.9816126 4.7563056-14.0022592z" fill="url(#B)"/><path d="m49.6078873 9.0012226c.127739.3935337.2665596 1.1587381.3737106 2.6169062.0208626.2839594-.0347099.3658695-.2188492.63729-.2509804.3699398-.6302605.9289894-.5584183 1.9067001.0702896.9565792.5151787 1.4797192.8095779 1.8258991.2235603.2628899.3161011.3717098.3385201.6767998.0208626.2839603-.0347099.3658714-.2188492.637291-.2509804.3699398-.6302605.9289894-.5584106 1.9067001.070282.9565792.5151825 1.4797192.8095703 1.8258991.2235718.2628803.3161011.3717003.3385201.6767902.0208588.2839603-.0347099.3658714-.2188492.637291-.2509804.3699379-.6302605.9289894-.5584106 1.9067001.0589714.8026791.5272903 1.4574089 1.0231094 2.1505795.5826111.8145084 1.185051 1.6567497 1.2730827 2.8548088.0808792 1.1006603-.3234901 1.7950001-.6769524 2.1836605-.3992577.4390202-.8172302.5872383-.9148483.5918388-.650631-.0960083-4.0797997-2.2773685-4.6712799-10.3269081-.5235023-7.1243467 2.4106713-11.5808162 3.6287766-12.7082462m.141941-1.22086c-.0038528.0000005-.0078392.0000424-.0117188.0001259-.9626884.0206399-5.4052696 5.1705594-4.7563095 14.0022602.6462555 8.7950344 4.6515541 11.2519264 5.6355438 11.2519264.0041008 0 .0082397-.000042.0122375-.0001297.962677-.0206375 2.7953377-1.3236084 2.6099167-3.8469467-.1854095-2.5233421-2.2034874-3.743721-2.2961884-5.0053902-.0927086-1.2616711.8699684-1.2823219.7772598-2.5439911-.092701-1.2616692-1.0553894-1.2410202-1.1480904-2.5026894-.0927086-1.2616692.8699684-1.28232.7772598-2.5439911-.0927086-1.2616692-1.0553894-1.2410288-1.148098-2.5026989-.092701-1.2616701.8699799-1.28232.7772675-2.5439901-.0923345-1.2565874-.2765043-3.7647003-1.22908-3.7644853z" fill="#e53828"/><path d="m49.0775909 11.1116896c.0157661.178009.0310287.3670578.0462494.5678635-.0005913-.0001268-.0005913-.0001268-.0005913-.0001268-.0047379-.0010147-.039917.0447111-.0725136.0928478-.2788467.4115667-.7981071 1.1766663-.7047768 2.453145.0912514 1.2370195.6682205 1.9147863 1.0131149 2.3199339.0499153.0589886.1057129.1136627.1488228.1842003-.0150185-.0137424-.050621.0368481-.08601.0893402-.279438.4114399-.7981033 1.1766663-.7047729 2.453146.0913773 1.2364273.6677513 1.9140663 1.0119286 2.3196793.0505066.0591164.1063042.1137905.1489487.183609-.0010567-.0008469-.0016518-.0009727-.0028343-.0012264-.0142097-.0030422-.0495186.0432758-.0827065.0912857-.2788467.4115658-.7986984 1.1765385-.7047768 2.4531441.0768776 1.0438271.6388512 1.8292332 1.1817017 2.588253.5371399.7509842 1.044796 1.4603577 1.1148872 2.4172726.081543 1.1117058-.4669495 1.6054993-.7429657 1.7811127-.93787-.5308571-3.3292198-2.9879398-3.8043022-9.4582157-.3750152-5.1038 1.0687142-8.6366646 2.2405968-10.5352642z" fill="url(#C)"/><path d="m58.5532112 6.2797971c-1.4701462-.485064-2.4120102 2.1462893-2.8829422 3.461967s.9992142 1.8007412.5282822 3.1164179-1.9410782.8306131-2.4120102 2.1462898.9992142 1.8007402.5282822 3.1164179-1.9410782.8306122-2.4120102 2.1462898.9992142 1.8007412.5282822 3.1164188c-.470932 1.3156757-3.8821564 1.6612244-4.8240242 4.2925797-.941864 2.6313534 1.5274963 4.91716 2.9976425 5.4022217 1.4701462.4850655 8.2925949-.2060318 11.589119-9.4157715s-2.1704751-16.8977671-3.6406213-17.3828311z" fill="url(#D)"/><path d="m58.1993332 7.2208891.0181389.0000801c.9085197.4281096 6.1479988 7.4072504 3.0348587 16.10466-3.0848694 8.6184196-9.0475807 8.8672409-9.7173195 8.8672409-.3119583 0-.5273285-.0345421-.6169701-.0641212-.6015396-.1984711-1.6884804-.9691505-2.2216187-2.0611401-.33815-.6925907-.3878899-1.3838005-.14785-2.05443.4227486-1.1810608 1.5520897-1.7921505 2.644249-2.3831215.9543304-.5163803 1.855732-1.0041294 2.1797714-1.9094505.3880577-1.0841389-.0447998-1.8642197-.3312302-2.3804188-.2459221-.4431705-.2698593-.5325909-.197052-.7360096.0802994-.2243195.1963615-.2932816.6579094-.4907799.5461998-.2337208 1.3716202-.5869293 1.7541008-1.6555099.3880501-1.0841293-.0447998-1.8642101-.3312378-2.3804111-.2459106-.4431696-.2698517-.532589-.1970406-.7360096.0802879-.2243099.1963501-.2932701.6579094-.4907799.5461998-.2337198 1.3716202-.5869293 1.7541008-1.6555099.3880501-1.0841198-.0447998-1.8641996-.3312302-2.3803997-.2459221-.4431801-.2698593-.5326004-.1969414-.7363205.9490816-2.6514989 1.455002-2.8575688 1.5874521-2.8575688m-.0000038-1c-1.2689095 0-2.0970459 2.3139296-2.5290565 3.5208702-.470932 1.3156796.9992104 1.8007498.5282784 3.1164198-.4709282 1.3156796-1.9410782.8306198-2.4120102 2.1462898-.4709282 1.3156796.9992104 1.8007412.5282822 3.1164207-.470932 1.3156796-1.941082.8306103-2.4120102 2.1462898-.470932 1.3156796.999218 1.8007393.5282784 3.1164188-.4709282 1.3156815-3.8821487 1.6612206-4.8240204 4.2925797-.9418602 2.6313515 1.5275002 4.91716 2.9976425 5.4022217.2096977.069191.5285721.1144714.9303017.1144714 2.4146805 0 7.8325081-1.6341724 10.6588173-9.5302429 3.296524-9.2097397-2.1704712-16.8977699-3.6406212-17.3828297-.1214945-.0400862-.239567-.0589093-.353882-.0589093z" fill="#e53828"/><path d="m51.556942 33.2840195.3846397-1.8125401c-.2987785-.115984-.8557701-.7003002-1.0835686-1.4835224-.1788025-.6148186-.0793114-1.0715961.0111885-1.3612366.2550545-.8179455.8364716-1.3368931 1.6942673-2.0344715.7753716-.6303825 1.5770569-1.2823811 1.9599876-2.5089188.4561996-1.4635105.1115303-2.4754925-.0743752-3.0193787.0113792-.007473.0227585-.0149441.0341377-.0224171.4366646-.2917004 1.2494812-.8348026 1.6970291-2.2698212.4564781-1.4628334.1114044-2.4749031-.0743752-3.0193806.0112534-.0068798.0226326-.0143518.0340118-.0218239.4366646-.2917023 1.2494812-.8348026 1.6974373-2.2697353.4564514-1.4646969.1109734-2.4768524-.0746574-3.0200596-.0174789-.0514259-.0369682-.1014242-.0539169-.1533556.265667-.8416843.4890556-1.4620514.6684914-1.8552675.9448357 1.6012068 4.3545761 6.9436102 2.1523514 14.0024605-2.4777031 7.9424-7.9223976 9.1794262-8.5847549 9.0376244z" fill="url(#E)"/><path d="m32 43.5654297c-5.4057617 0-8.0512695-3.9873047-8.9648438-5.7724609l-1.4316406.9130859-.8066406-1.265625 2.9521484-1.8818359.3173828.8867188c.0825196.2294921 2.0795899 5.6201171 7.9335938 5.6201171 5.8818359 0 7.9121094-5.5625 7.9326172-5.6191406l.3134766-.8896484 2.9570313 1.8837891-.8066406 1.265625-1.4316406-.9130859c-.9140626 1.7851561-3.5585939 5.7724608-8.9648439 5.7724608z" fill="#f5b32c"/><ellipse cx="25.385" cy="24.635819" fill="url(#G)" rx="2.835" ry="6.615"/><path d="m25.3850002 18.0208206c1.5657291 0 2.8349991 2.9616394 2.8349991 6.6149998s-1.2692699 6.6149998-2.8349991 6.6149998-2.835001-2.9616394-2.835001-6.6149998 1.2692719-6.6149998 2.835001-6.6149998m0-1c-2.5177002 0-3.835001 3.8308296-3.835001 7.6149998s1.3173008 7.6149998 3.835001 7.6149998 3.8349991-3.8308296 3.8349991-7.6149998-1.3172989-7.6149998-3.8349991-7.6149998z" fill="#f5b32c"/><ellipse cx="24.629" cy="21.800819" fill="url(#I)" rx=".945" ry="1.89"/><ellipse cx="26.141001" cy="27.91182" fill="url(#K)" rx=".945" ry="1.197"/><ellipse cx="38.615002" cy="24.635819" fill="url(#L)" rx="2.835" ry="6.615"/><path d="m38.6150017 18.0208206c1.565731 0 2.8349991 2.9616394 2.8349991 6.6149998s-1.269268 6.6149998-2.8349991 6.6149998-2.8349991-2.9616394-2.8349991-6.6149998 1.269268-6.6149998 2.8349991-6.6149998m0-1c-2.5177002 0-3.8349991 3.8308296-3.8349991 7.6149998s1.3172989 7.6149998 3.8349991 7.6149998 3.8349991-3.8308296 3.8349991-7.6149998-1.3172989-7.6149998-3.8349991-7.6149998z" fill="#f5b32c"/><ellipse cx="37.859001" cy="21.800819" fill="url(#M)" rx=".945" ry="1.89"/><ellipse cx="39.370998" cy="27.91182" fill="url(#N)" rx=".945" ry="1.197"/><ellipse cx="50.224999" cy="41.627819" fill="url(#P)" rx=".945" ry=".927"/><ellipse cx="13.775" cy="41.627819" fill="url(#Q)" rx=".945" ry=".927"/></svg>